<svg version="1.1" xmlns="http://www.w3.org/2000/svg" style="display: block;" viewBox="0 0 2048 2048" width="512" height="512" preserveAspectRatio="none">
<defs>
	<linearGradient id="Gradient1" gradientUnits="userSpaceOnUse" x1="1370.82" y1="718.126" x2="1517.99" y2="742.006">
		<stop class="stop0" offset="0" stop-opacity="1" stop-color="rgb(76,94,119)"/>
		<stop class="stop1" offset="1" stop-opacity="1" stop-color="rgb(103,120,144)"/>
	</linearGradient>
</defs>
<path transform="translate(0,0)" fill="rgb(63,57,70)" d="M 1103.13 339.842 C 1095.5 292.78 1127.26 291.044 1165.35 290.999 L 1280.97 290.98 C 1373.74 291.078 1352.73 336.825 1354.04 407.921 C 1387.25 407.568 1377.54 411.723 1381.85 439.834 C 1432.28 440.683 1417.15 446.354 1416.93 508.078 C 1459.24 509.071 1494.44 549.224 1501.14 586.6 C 1504.89 607.514 1518.28 616.103 1531.8 633.08 C 1631.01 757.686 1688.7 942.003 1664.27 1100.84 C 1753.18 1100.76 1772.49 1140.78 1772.08 1223.82 C 1819.07 1231.42 1813.23 1260.09 1813.51 1297.51 C 1813.88 1346.57 1828.41 1404.06 1772.08 1416.6 C 1772.07 1454.13 1773.3 1484.36 1744.46 1513.38 C 1717.31 1540.68 1689.48 1534.05 1655.99 1537.11 C 1655.97 1550.98 1655.73 1565.48 1655.99 1579.29 C 1695.17 1578.22 1682.64 1596.71 1682.97 1630.27 C 1707.24 1630.26 1831.28 1627.58 1844.24 1633.15 C 1849.4 1644.32 1848.07 1737.02 1845.3 1744.12 C 1843.27 1749.32 1830.57 1748.07 1825.97 1748.09 L 351.723 1747.98 C 338.19 1747.97 276.167 1753.22 272.306 1741.54 C 271.272 1738.41 265.934 1633.37 278.84 1630.88 C 291.496 1628.45 331.355 1630.31 346.002 1630.3 L 479.59 1630.3 C 501.066 1630.31 527.678 1631.08 548.739 1630.27 C 548.586 1611.05 544.934 1582.66 570.46 1581.36 C 575.102 1577.72 572.641 1553.8 573.032 1546.2 C 490.214 1545.57 505.139 1466.97 505.083 1408.91 L 503.893 1408.83 C 493.525 1408.17 480.209 1408.74 469.478 1408.83 L 412.123 1408.95 C 373.928 1408.87 334.296 1408.93 337.31 1357.13 L 337.899 1348.15 C 291.231 1354.29 297.814 1338.3 296.972 1302.12 C 274.943 1302.08 245.689 1303.89 224.388 1301.95 C 201.956 1299.9 193.226 1256.96 211.6 1243.39 C 229.549 1228.25 273.379 1234.66 296.972 1234.61 C 297.118 1193.51 288.439 1176.58 337.899 1179.01 C 339.336 1153.03 353.284 1140.96 379.003 1143.14 L 379.003 1116 L 404.449 1116 C 404.483 1125.03 404.579 1134.12 404.449 1143.14 L 438.07 1143.14 C 426.017 1083.89 432.483 912.449 459.051 858.835 C 432.296 845.568 426.195 820.109 443.656 795.792 C 447.227 792.461 454.197 790.863 459.051 789.441 C 456.991 785.41 451.094 778.298 447.964 775.02 L 447.852 773.517 C 443.034 715.758 422.316 692.816 453.458 624.628 C 411.196 589.445 446.152 538.432 491.782 554.894 C 527.529 518.233 557.935 500.575 607.795 490.072 C 628.167 446.642 671.738 444.378 688.77 490.072 C 702.613 491.067 710.529 494.037 723.616 498.254 L 725.023 497.67 C 744.79 489.365 765.328 477.475 785.756 468.258 C 871.01 429.796 963.506 407.962 1057.28 409.145 C 1071.4 409.323 1085.13 410.138 1099.19 409.095 C 1097.76 397.466 1097.68 394.638 1099.19 382.864 C 1095.69 382.654 1081.5 382.492 1079.64 379.796 C 1075.28 373.46 1074.49 347.255 1079.7 341.834 C 1082.12 339.311 1098.05 339.85 1103.13 339.842 z M 1154.93 339.842 C 1161.47 339.637 1178.45 338.142 1183.23 341.236 C 1189.72 353.122 1193.59 381.454 1170.37 382.864 C 1171.4 397.335 1171.52 404.143 1170.37 418.753 C 1199.05 423.347 1224.01 429.715 1252.1 437.281 C 1258.55 439.018 1260.75 439.618 1261.34 432.75 C 1260.96 424.468 1260.46 417.393 1261.34 409.095 C 1271.42 407.806 1282.73 408.015 1292.98 407.921 C 1293.02 393.918 1296.07 326.825 1288.52 317.906 C 1279.27 306.972 1182.36 310.989 1163.6 311.454 C 1150.55 314.592 1154.27 329.065 1154.93 339.842 z M 1303.73 308.756 C 1316.04 334.887 1310.83 378.886 1310.89 407.921 C 1319.51 407.91 1328.22 407.831 1336.83 407.921 C 1336.92 370.541 1350.28 312.953 1303.73 308.756 z M 690.985 1557.98 C 690.592 1566.92 691.102 1574.77 690.985 1583.48 C 722.564 1587.06 714.83 1604.58 715.1 1630.27 C 762.723 1631.13 813.144 1630.26 861.042 1630.27 L 860.75 1628.83 L 750.839 1581.16 C 736.258 1574.72 705.209 1557.56 690.985 1557.98 z"/>
<path transform="translate(0,0)" fill="rgb(143,194,220)" d="M 521.836 1123.19 C 521.27 1065.42 581.966 1081.97 626.873 1081.96 L 1018.02 1081.92 C 1050.9 1081.89 1077.93 1080.47 1083.01 1120.18 C 1084.67 1213.51 1080.23 1307.11 1083.01 1400.37 C 1084.34 1416.79 1082.99 1454.32 1083.01 1473.08 C 1082.4 1542.08 1031.08 1527.2 977.572 1527.18 L 589.169 1527.21 C 547.962 1527.45 518.608 1528.31 521.836 1476.73 L 521.836 1400.37 L 521.836 1123.19 z"/>
<path transform="translate(0,0)" fill="rgb(92,160,192)" d="M 801.967 1400.37 L 807.754 1400.37 C 841.606 1401.11 877.829 1400.36 911.841 1400.36 L 1083.01 1400.37 C 1084.34 1416.79 1082.99 1454.32 1083.01 1473.08 C 1082.4 1542.08 1031.08 1527.2 977.572 1527.18 L 589.169 1527.21 C 547.962 1527.45 518.608 1528.31 521.836 1476.73 L 521.836 1400.37 L 708.273 1400.37 C 737.939 1400.37 772.721 1401.34 801.967 1400.37 z"/>
<path transform="translate(0,0)" fill="rgb(84,140,170)" d="M 521.836 1476.73 L 965.343 1476.72 C 980.939 1476.72 1079.47 1480.48 1083.01 1473.08 C 1082.4 1542.08 1031.08 1527.2 977.572 1527.18 L 589.169 1527.21 C 547.962 1527.45 518.608 1528.31 521.836 1476.73 z"/>
<path transform="translate(0,0)" fill="rgb(198,220,234)" d="M 521.836 1123.19 C 521.27 1065.42 581.966 1081.97 626.873 1081.96 L 1018.02 1081.92 C 1050.9 1081.89 1077.93 1080.47 1083.01 1120.18 L 1081.64 1122.66 C 1072.7 1124.73 1026.91 1123.2 1015.57 1123.2 L 553.574 1123.27 C 546.407 1123.28 528.264 1123.81 521.836 1123.19 z"/>
<path transform="translate(0,0)" fill="rgb(50,51,75)" d="M 739.185 1274.94 C 738.377 1247.1 751.307 1191.72 760.607 1166.31 C 761.532 1163.79 767.959 1164.77 768.702 1167.53 C 776.671 1197.07 784.393 1230.3 789.109 1260.33 C 793.603 1255.14 850.062 1191.92 843.921 1228.89 C 835.25 1281.09 821.389 1348.81 807.754 1400.37 L 801.967 1400.37 C 790.605 1370.37 787.176 1329.98 778.053 1297.9 C 764.473 1302.08 745.366 1334.29 732.668 1333.45 C 725.073 1327.57 730.656 1299.62 730.744 1289.08 C 692.736 1290.14 654.318 1287.54 616.348 1290.1 C 610.087 1290.53 604.16 1280.59 609.244 1276.86 C 614.729 1272.84 723.342 1274.98 739.185 1274.94 z"/>
<path transform="translate(0,0)" fill="rgb(165,157,149)" d="M 821.596 1251.85 C 821.931 1253.4 806.305 1327.55 804.597 1331.84 C 802.731 1329.23 802.736 1327.35 801.967 1324.04 C 799.803 1311.48 795.404 1294.26 792.237 1281.74 C 800.405 1271.95 812.259 1260.95 821.596 1251.85 z"/>
<path transform="translate(0,0)" fill="rgb(168,173,188)" d="M 763.861 1223.82 C 765.996 1227.28 772.517 1266.73 774.656 1274.94 C 767.865 1282.29 763.365 1286.2 755.775 1292.68 L 748.714 1300.91 C 754.479 1274.79 757.202 1250.69 763.861 1223.82 z"/>
<path transform="translate(0,0)" fill="rgb(50,51,75)" d="M 880.916 1274.94 C 894.476 1274.95 978.638 1273.31 983.057 1275.58 C 991.683 1280 985.67 1288.58 975.078 1289.08 L 889.945 1289.18 C 867.158 1289.23 859.696 1275.89 880.916 1274.94 z"/>
<path transform="translate(0,0)" fill="rgb(199,227,201)" d="M 1039.24 426.739 C 1098.47 422.963 1173.02 435.294 1230.49 449.572 C 1230.76 468.756 1230.49 488.834 1230.49 508.078 C 1162.43 521.289 1154.9 568.156 1154.9 628.711 L 1154.93 935.862 L 1116.03 935.862 L 1116.03 980.244 L 1089.55 980.244 L 1089.71 912.864 C 1089.79 880.415 1092.39 847.122 1050.47 847.71 C 1012.97 848.236 974.443 845.747 937.157 848.992 C 907.987 851.53 913.004 894.149 913.016 913.632 L 913.123 980.244 C 902.916 980.389 874.109 977.338 867.17 983.295 C 857.872 991.276 856.908 1034.73 870.032 1040.42 C 880.407 1044.92 903.981 1042.87 916.559 1043 C 916.926 1051.23 916.78 1058.26 916.559 1066.51 L 843.939 1066.51 C 843.958 1055.92 844.192 1044.22 843.691 1034.87 C 842.725 1016.85 796.388 982.745 796.807 1066.51 L 763.861 1066.51 C 763.886 1054.88 766.028 1031.34 758.572 1022.02 C 750.878 1012.4 730.009 1010.96 721.435 1020.06 C 712.493 1029.55 714.954 1053.93 715.1 1066.51 L 607.795 1066.51 C 607.913 1054.17 609.385 1027.25 601.862 1020.9 C 562.111 987.374 557.591 1040.82 557.883 1066.51 C 547.214 1066.51 543.936 1066.51 533.914 1070.48 C 501.418 1088.29 504.786 1111.04 505.083 1143.14 C 490.181 1143.28 467.024 1141.83 453.458 1143.14 C 439.712 1057.37 448.943 945.391 471.867 863.505 C 479.441 862.872 484.767 861.405 491.782 858.835 C 530.785 893.265 554.841 910.993 607.795 923.589 C 631.442 963.54 665.959 953.545 690.985 923.589 C 748.689 899.078 758.751 904.21 811.053 853.784 C 850.688 870.83 887.943 832.264 861.042 795.792 C 876.87 795.782 982.57 797.682 989.034 794.6 C 996.624 790.982 994.758 782.211 986.903 781.402 C 969.481 779.607 950.459 779.982 933.011 779.973 L 839.068 779.997 C 858.826 737.204 862.807 666.485 839.068 624.628 C 884.428 594.694 857.098 539.572 811.053 551.537 C 792.332 534.594 768.758 516.484 744.891 508.078 C 819.261 458.305 953.074 428.499 1039.24 426.739 z"/>
<path transform="translate(0,0)" fill="rgb(63,57,70)" d="M 997.969 702.378 C 1005.44 702.323 1068.36 695.642 1052.63 716.821 C 1046.29 720.229 964.992 718.748 951.331 718.726 C 944.867 718.662 881.705 725.463 897.159 705.537 C 906.214 700.373 982.292 702.35 997.969 702.378 z"/>
<path transform="translate(0,0)" fill="rgb(240,169,70)" d="M 1223.25 1408.91 L 1223.15 1194.24 C 1222.99 1128.45 1247.28 1116.13 1310.93 1115.96 L 1695.07 1116 C 1692.71 1148.82 1695.09 1182.58 1695.09 1215.52 L 1695.07 1429.71 L 1695.07 1519.82 C 1682.89 1519 1662.5 1519.77 1649.64 1519.79 L 1321.52 1519.89 C 1220.45 1519.97 1222.63 1492.7 1223.25 1408.91 z"/>
<path transform="translate(0,0)" fill="rgb(189,131,81)" d="M 1223.25 1408.91 C 1225.92 1443.47 1275.96 1443.95 1299.54 1443.95 L 1400.05 1443.97 C 1406.65 1444.01 1418.46 1444.52 1424.71 1444.04 L 1426.38 1443.9 C 1437.7 1437.04 1575.13 1437.64 1602.86 1439.1 C 1633.32 1431.69 1663.61 1433.64 1695.07 1429.71 L 1695.07 1519.82 C 1682.89 1519 1662.5 1519.77 1649.64 1519.79 L 1321.52 1519.89 C 1220.45 1519.97 1222.63 1492.7 1223.25 1408.91 z"/>
<path transform="translate(0,0)" fill="rgb(63,57,70)" d="M 1426.38 1443.9 C 1437.7 1437.04 1575.13 1437.64 1602.86 1439.1 C 1613.81 1443.52 1614.32 1441.11 1621 1451.02 C 1647.7 1469.51 1587.75 1468.05 1581 1468.03 L 1527.12 1467.89 C 1496.86 1467.82 1458.99 1469.46 1428.61 1466.26 C 1418.44 1465.19 1423.34 1452.59 1426.38 1446.47 L 1426.38 1443.9 z"/>
<path transform="translate(0,0)" fill="rgb(178,103,57)" d="M 1426.38 1443.9 C 1437.7 1437.04 1575.13 1437.64 1602.86 1439.1 C 1613.81 1443.52 1614.32 1441.11 1621 1451.02 C 1616.49 1451.69 1607.06 1451.1 1602.09 1451.06 L 1491.23 1451.04 C 1470.24 1451.04 1446.35 1452.7 1426.38 1446.47 L 1426.38 1443.9 z"/>
<path transform="translate(0,0)" fill="rgb(63,57,70)" d="M 1310.89 1260.33 C 1342.52 1259.1 1354.28 1256.2 1356.09 1292.68 C 1396.55 1291.4 1395.62 1308.75 1394.62 1342.75 C 1383.92 1358.81 1373.69 1359.04 1356.09 1359 C 1355.05 1375.14 1354.19 1382.99 1336.83 1387.01 C 1309.54 1387.71 1292.16 1392.58 1291.16 1359 C 1281.11 1358.9 1266.07 1359.62 1258.5 1352.46 C 1247.47 1342.03 1249.34 1309.89 1259.1 1299.12 C 1265.75 1291.78 1281.71 1292.85 1291.16 1292.68 C 1290.42 1281.22 1289.86 1276.94 1295.39 1267.02 C 1301.48 1262.32 1303.29 1261.42 1310.89 1260.33 z"/>
<path transform="translate(0,0)" fill="rgb(240,169,70)" d="M 1310.89 1277.05 C 1318.84 1276.86 1325.81 1276.77 1333.75 1277.05 C 1342.7 1290.93 1342.81 1297.14 1331.19 1310.08 C 1311.41 1325.24 1305.01 1296.09 1310.89 1277.05 z"/>
<path transform="translate(0,0)" fill="rgb(240,169,70)" d="M 1320.91 1333.24 C 1342.84 1337.62 1348.52 1367.59 1329.06 1370.24 C 1322.99 1370.38 1316.95 1370.29 1310.89 1370.24 C 1303.76 1351.74 1304.74 1345.3 1320.91 1333.24 z"/>
<path transform="translate(0,0)" fill="rgb(240,169,70)" d="M 1291.16 1306.1 C 1292.39 1306.64 1301.62 1321.12 1303.73 1324.04 C 1297.31 1333.57 1294.13 1342.57 1281.95 1342.75 C 1263.29 1337.31 1266.41 1327.29 1266.96 1310.08 C 1276 1309.02 1282.25 1307.98 1291.16 1306.1 z"/>
<path transform="translate(0,0)" fill="rgb(240,169,70)" d="M 1354.04 1310.08 C 1386.98 1309.6 1385.45 1334.87 1368 1342.75 C 1352.45 1343.6 1349.01 1335.2 1340 1324.04 C 1345.29 1319.19 1349.39 1315.56 1354.04 1310.08 z"/>
<path transform="translate(0,0)" fill="rgb(248,249,249)" d="M 1281.95 1125.36 L 1593.58 1125.35 C 1661.32 1125.33 1680.79 1143.47 1606.5 1143.14 L 1319.77 1143.09 C 1304.34 1143.09 1288.77 1142.64 1273.41 1143.97 C 1265.32 1144.67 1251.71 1153.51 1244.39 1148.38 C 1243.93 1136.95 1272.07 1126.79 1281.95 1125.36 z"/>
<path transform="translate(0,0)" fill="rgb(63,57,70)" d="M 1426.38 1274.94 C 1434.48 1265.46 1598.87 1266.74 1616.82 1272.18 C 1623.99 1276.32 1629.39 1282.25 1626.57 1291.56 C 1623.22 1302.63 1552.17 1297.98 1540.71 1297.95 L 1475.96 1297.81 C 1454.77 1297.9 1409.06 1307.17 1426.38 1274.94 z"/>
<path transform="translate(0,0)" fill="rgb(178,103,57)" d="M 1426.38 1274.94 C 1434.48 1265.46 1598.87 1266.74 1616.82 1272.18 C 1608.58 1294.03 1527.74 1277.75 1499.94 1281.77 C 1486.06 1283.78 1431.52 1281.8 1426.38 1274.94 z"/>
<path transform="translate(0,0)" fill="rgb(50,51,75)" d="M 1426.38 1359 C 1442.8 1352.28 1601.17 1352.41 1616.82 1359 C 1629.03 1366.2 1629.38 1380.97 1614.29 1383.16 C 1605.4 1384.46 1593.54 1383.76 1584.28 1383.76 L 1436.41 1383.8 C 1419.26 1383.93 1417.4 1370.28 1426.38 1359 z"/>
<path transform="translate(0,0)" fill="rgb(178,103,57)" d="M 1426.38 1359 C 1442.8 1352.28 1601.17 1352.41 1616.82 1359 C 1616.08 1361.18 1615.9 1362.58 1615.7 1364.88 C 1612.71 1367.34 1442.68 1376.07 1426.38 1359 z"/>
<path transform="translate(0,0)" fill="rgb(63,57,70)" d="M 1426.38 1317.49 C 1440.16 1308.03 1588.64 1313.66 1616.82 1313.01 C 1629.06 1322.49 1630.52 1340.16 1613.51 1340.36 C 1555.4 1341.02 1497.16 1339.76 1439.02 1340.73 C 1422.44 1340.98 1417.03 1331.14 1426.38 1317.49 z"/>
<path transform="translate(0,0)" fill="rgb(178,103,57)" d="M 1426.38 1317.49 C 1440.16 1308.03 1588.64 1313.66 1616.82 1313.01 C 1613.37 1333.86 1556.97 1323.09 1535.11 1324.09 C 1518.04 1324.87 1439.7 1327.67 1426.38 1317.49 z"/>
<path transform="translate(0,0)" fill="rgb(63,57,70)" d="M 1422.01 1406.24 C 1435.08 1394.79 1472.84 1400.1 1489.98 1400.27 C 1504.92 1400.36 1612.69 1397.45 1621 1402.89 C 1624.82 1408.62 1628.55 1421.33 1619.72 1424.82 C 1612.34 1427.75 1431.03 1428.02 1426.2 1425.47 C 1420.33 1422.37 1419.63 1413.47 1421.5 1407.83 L 1422.01 1406.24 z"/>
<path transform="translate(0,0)" fill="rgb(178,103,57)" d="M 1422.01 1406.24 C 1435.08 1394.79 1472.84 1400.1 1489.98 1400.27 C 1504.92 1400.36 1612.69 1397.45 1621 1402.89 C 1613.63 1415.34 1589.53 1409.02 1576.95 1408.94 C 1551.12 1408.79 1440.13 1412.84 1422.01 1406.24 z"/>
<path transform="translate(0,0)" fill="rgb(63,57,70)" d="M 1426.38 1234.61 C 1437.12 1224.68 1604.45 1224.12 1616.82 1230.07 C 1629.55 1237.7 1628.8 1250.48 1614.06 1254.4 C 1595.08 1259.44 1465.63 1254.77 1438.59 1254.51 C 1427.03 1254.4 1412.48 1245.91 1426.38 1234.61 z"/>
<path transform="translate(0,0)" fill="rgb(178,103,57)" d="M 1426.38 1234.61 C 1437.12 1224.68 1604.45 1224.12 1616.82 1230.07 C 1611.82 1243.19 1590.69 1237.97 1575.41 1237.99 L 1517.51 1238.01 C 1504.56 1238 1432.38 1240.76 1426.38 1234.61 z"/>
<path transform="translate(0,0)" fill="rgb(63,57,70)" d="M 1426.38 1192.27 C 1434.49 1187.23 1460.19 1188.92 1470.85 1188.92 L 1589.53 1188.81 C 1597.56 1188.77 1609.17 1188.12 1616.82 1188.94 C 1620.38 1191.08 1624.05 1192.88 1624.72 1197.25 C 1628.07 1219.27 1594.95 1213 1581.57 1212.94 L 1464.86 1212.96 C 1454.12 1213 1404.62 1217.84 1426.38 1192.27 z"/>
<path transform="translate(0,0)" fill="rgb(178,103,57)" d="M 1426.38 1192.27 C 1434.49 1187.23 1460.19 1188.92 1470.85 1188.92 L 1589.53 1188.81 C 1597.56 1188.77 1609.17 1188.12 1616.82 1188.94 C 1612.05 1204.78 1431.61 1195.28 1426.38 1192.27 z"/>
<path transform="translate(0,0)" fill="rgb(150,83,34)" d="M 1333.75 1151.78 C 1336.69 1151.87 1336.68 1151.77 1339.42 1152.72 C 1341.81 1157.71 1341.58 1241.75 1336.83 1249.68 C 1323.14 1247.52 1331.06 1161.33 1333.75 1151.78 z"/>
<path transform="translate(0,0)" fill="rgb(248,249,249)" d="M 1659.12 1123.19 C 1667.5 1124.08 1680.64 1132.19 1677.82 1141.64 L 1674.4 1143.14 C 1660.21 1142.86 1646.67 1140.43 1659.12 1123.19 z"/>
<path transform="translate(0,0)" fill="rgb(219,169,122)" d="M 287.955 1647.8 L 1770.93 1647.79 C 1789.76 1647.78 1810.37 1647.19 1828.99 1647.8 C 1829.74 1656.24 1829.22 1670.1 1829.15 1678.89 L 1828.99 1732.01 L 340.312 1732.05 C 325.571 1732.07 301.833 1732.93 287.955 1732.01 L 287.955 1701.71 L 287.955 1647.8 z"/>
<path transform="translate(0,0)" fill="rgb(189,131,81)" d="M 1828.99 1647.8 C 1829.74 1656.24 1829.22 1670.1 1829.15 1678.89 L 1828.99 1732.01 L 340.312 1732.05 C 325.571 1732.07 301.833 1732.93 287.955 1732.01 L 287.955 1701.71 C 319.319 1702.42 353.11 1701.74 384.65 1701.72 L 1752.63 1701.71 C 1776.93 1701.72 1805.11 1702.55 1828.99 1701.71 C 1829.08 1689.49 1827.73 1657.88 1828.99 1647.8 z"/>
<path transform="translate(0,0)" fill="rgb(63,57,70)" d="M 1170.37 935.862 C 1171.44 910.567 1170.4 877.457 1170.39 851.31 L 1170.33 628.692 C 1170.32 523.551 1209.06 523.834 1294.64 523.887 L 1396.87 523.931 C 1474.96 513.68 1489.44 590.429 1489.46 648.244 L 1489.43 935.862 L 1465.16 935.862 L 1465.25 885.087 C 1465.29 838.152 1466.62 831.416 1422.01 834.628 L 1261.34 834.628 C 1196.97 834.529 1187.57 824.64 1188.22 888.091 L 1188.26 935.862 L 1170.37 935.862 z"/>
<path transform="translate(0,0)" fill="rgb(168,173,188)" d="M 1170.37 935.862 C 1171.44 910.567 1170.4 877.457 1170.39 851.31 L 1170.33 628.692 C 1170.32 523.551 1209.06 523.834 1294.64 523.887 L 1396.87 523.931 C 1425.53 547.145 1431.25 558.904 1434.06 596.348 L 1273.93 596.382 C 1248.71 596.397 1217.57 597.352 1193.08 596.348 C 1193.04 603.532 1189.85 612.281 1199.03 612.721 L 1199.03 687.206 C 1217.19 699.475 1205.06 712.313 1208.93 736.658 L 1203.95 736.658 C 1195.94 740.161 1198.07 802.776 1200.85 810.015 C 1207.81 815.828 1252.31 813.957 1263.77 813.907 C 1262.42 821.883 1261.68 826.611 1261.34 834.628 C 1196.97 834.529 1187.57 824.64 1188.22 888.091 L 1188.26 935.862 L 1170.37 935.862 z"/>
<path transform="translate(0,0)" fill="url(#Gradient1)" d="M 1396.87 523.931 C 1474.96 513.68 1489.44 590.429 1489.46 648.244 L 1489.43 935.862 L 1465.16 935.862 L 1465.25 885.087 C 1465.29 838.152 1466.62 831.416 1422.01 834.628 C 1421.82 828.763 1423.16 817.958 1420.15 813.907 C 1403.48 813.907 1386.69 814.291 1370.04 813.907 C 1366.66 800.399 1367.94 752.735 1368 736.658 L 1411.51 736.658 C 1416.66 725.998 1429.59 690.464 1411.51 687.206 C 1427.66 686.737 1448.63 687.293 1465.16 687.206 C 1466.28 680.846 1465.97 618.581 1465.16 612.721 C 1459.64 612.094 1441.33 612.847 1434.06 612.721 L 1434.06 596.348 C 1431.25 558.904 1425.53 547.145 1396.87 523.931 z"/>
<path transform="translate(0,0)" fill="rgb(63,57,70)" d="M 1411.51 736.658 C 1479.75 735.934 1467.64 730.66 1465.16 813.907 C 1454.77 814.683 1430.99 815.45 1420.15 813.907 C 1403.48 813.907 1386.69 814.291 1370.04 813.907 C 1366.66 800.399 1367.94 752.735 1368 736.658 L 1411.51 736.658 z"/>
<path transform="translate(0,0)" fill="rgb(151,221,106)" d="M 1436.24 752.012 C 1441.06 752.009 1446.01 751.939 1450.82 752.012 L 1450.82 797.997 C 1441.48 797.458 1435.73 797.329 1426.38 797.997 L 1381.85 797.997 L 1381.85 752.012 L 1436.24 752.012 z"/>
<path transform="translate(0,0)" fill="rgb(112,199,70)" d="M 1436.24 752.012 C 1441.06 752.009 1446.01 751.939 1450.82 752.012 L 1450.82 797.997 C 1441.48 797.458 1435.73 797.329 1426.38 797.997 C 1436.29 791.838 1436.55 762.087 1436.24 752.012 z"/>
<path transform="translate(0,0)" fill="rgb(92,160,192)" d="M 1434.06 596.348 L 1434.06 612.721 C 1441.33 612.847 1459.64 612.094 1465.16 612.721 C 1465.97 618.581 1466.28 680.846 1465.16 687.206 C 1448.63 687.293 1427.66 686.737 1411.51 687.206 C 1429.59 690.464 1416.66 725.998 1411.51 736.658 L 1368 736.658 C 1367.94 752.735 1366.66 800.399 1370.04 813.907 C 1386.69 814.291 1403.48 813.907 1420.15 813.907 C 1423.16 817.958 1421.82 828.763 1422.01 834.628 L 1261.34 834.628 C 1261.68 826.611 1262.42 821.883 1263.77 813.907 L 1315.41 814.023 C 1357.67 814.117 1349.84 817.655 1349.85 770.243 L 1349.88 650.725 C 1349.9 643.578 1351.32 619.207 1347.52 614.186 C 1340.15 611.64 1215.54 611.937 1199.03 612.721 C 1189.85 612.281 1193.04 603.532 1193.08 596.348 C 1217.57 597.352 1248.71 596.397 1273.93 596.382 L 1434.06 596.348 z"/>
<path transform="translate(0,0)" fill="rgb(63,57,70)" d="M 1434.06 612.721 C 1441.33 612.847 1459.64 612.094 1465.16 612.721 C 1465.97 618.581 1466.28 680.846 1465.16 687.206 C 1448.63 687.293 1427.66 686.737 1411.51 687.206 C 1402.79 687.277 1373.32 688.651 1367.47 684.718 C 1366.27 675.263 1366.81 621.677 1368 612.721 C 1389.47 612.222 1412.46 612.66 1434.06 612.721 z"/>
<path transform="translate(0,0)" fill="rgb(254,205,75)" d="M 1431.14 627.78 C 1437.61 627.826 1444.38 627.976 1450.82 627.78 L 1450.82 671.79 L 1436.24 671.79 L 1411.51 671.79 L 1381.85 671.79 L 1381.85 627.78 L 1431.14 627.78 z"/>
<path transform="translate(0,0)" fill="rgb(240,169,70)" d="M 1431.14 627.78 C 1437.61 627.826 1444.38 627.976 1450.82 627.78 L 1450.82 671.79 L 1436.24 671.79 C 1436.61 653.996 1435.48 648.48 1434.06 631.962 C 1434.09 631.174 1433.84 629.75 1433.73 628.906 L 1431.14 627.78 z"/>
<path transform="translate(0,0)" fill="rgb(255,190,75)" d="M 1411.51 671.79 C 1418.73 670.691 1428.01 642.381 1434.06 631.962 C 1435.48 648.48 1436.61 653.996 1436.24 671.79 L 1411.51 671.79 z"/>
<path transform="translate(0,0)" fill="rgb(73,100,128)" d="M 1208.93 702.378 L 1272.01 702.378 L 1272.01 736.658 C 1255.84 736.624 1218.36 735.371 1203.95 736.658 L 1208.93 736.658 C 1209.85 734.222 1208.97 707.053 1208.93 702.378 z"/>
<path transform="translate(0,0)" fill="rgb(98,159,125)" d="M 1199.03 687.206 C 1241.37 687.203 1292.18 685.827 1333.75 687.206 C 1333.8 691.739 1334.07 698.004 1333.75 702.378 C 1317.58 701.702 1304.1 701.148 1287.94 702.378 L 1272.01 702.378 L 1208.93 702.378 C 1208.97 707.053 1209.85 734.222 1208.93 736.658 C 1205.06 712.313 1217.19 699.475 1199.03 687.206 z"/>
<path transform="translate(0,0)" fill="rgb(73,100,128)" d="M 1287.94 702.378 C 1304.1 701.148 1317.58 701.702 1333.75 702.378 C 1332.54 712.164 1333.35 726.588 1333.75 736.658 C 1318.2 736.904 1303.49 736.967 1287.94 736.658 L 1287.94 702.378 z"/>
<path transform="translate(0,0)" fill="rgb(208,69,58)" d="M 1223.25 752.012 C 1237.64 752.009 1252.62 751.782 1266.96 752.012 L 1266.96 797.997 C 1254.72 798.059 1225.32 799.002 1214.67 797.997 C 1213.84 796.142 1214.53 757.789 1214.56 752.631 C 1216.95 751.335 1220.35 751.897 1223.25 752.012 z"/>
<path transform="translate(0,0)" fill="rgb(245,158,142)" d="M 1214.67 797.997 C 1213.84 796.142 1214.53 757.789 1214.56 752.631 C 1216.95 751.335 1220.35 751.897 1223.25 752.012 C 1229.37 753.888 1239.38 761.82 1244.91 765.915 C 1236.78 781.226 1229.02 788.803 1214.67 797.997 z"/>
<path transform="translate(0,0)" fill="rgb(73,100,128)" d="M 1281.95 752.012 L 1333.75 752.012 L 1333.75 797.997 C 1318.16 798.625 1297.93 798.003 1281.95 797.997 L 1281.95 752.012 z"/>
<path transform="translate(0,0)" fill="rgb(73,100,128)" d="M 1281.95 627.78 L 1333.75 627.78 C 1334.81 644.536 1334.87 655.397 1333.75 671.79 L 1281.95 671.79 L 1281.95 627.78 z"/>
<path transform="translate(0,0)" fill="rgb(208,69,58)" d="M 1237.27 627.78 C 1247.19 626.45 1256.99 627.212 1266.96 627.78 L 1266.96 671.79 C 1253.05 671.171 1232.98 670.673 1219.03 671.79 L 1216.12 671.209 C 1213.25 667.283 1214.59 635.234 1214.67 627.78 L 1237.27 627.78 z"/>
<path transform="translate(0,0)" fill="rgb(245,158,142)" d="M 1214.67 627.78 L 1237.27 627.78 C 1238.31 638.668 1238.75 639.477 1244.91 648.582 C 1237.96 658.046 1228.85 665.442 1219.03 671.79 L 1216.12 671.209 C 1213.25 667.283 1214.59 635.234 1214.67 627.78 z"/>
<path transform="translate(0,0)" fill="rgb(189,131,81)" d="M 579.533 809.404 C 439.016 689.315 584.123 535.666 707.41 596.348 C 844.57 668.22 755.678 889.247 579.533 809.404 z"/>
<path transform="translate(0,0)" fill="rgb(219,169,122)" d="M 579.533 809.404 C 439.016 689.315 584.123 535.666 707.41 596.348 C 692.231 618.194 690.494 625.587 679.905 648.301 C 653.412 632.507 619.454 637.612 598.777 660.497 C 578.1 683.382 576.454 717.682 594.846 742.442 C 594.435 758.633 588.204 795.789 579.533 809.404 z"/>
<path transform="translate(0,0)" fill="rgb(63,57,70)" d="M 594.846 742.442 C 576.454 717.682 578.1 683.382 598.777 660.497 C 619.454 637.612 653.412 632.507 679.905 648.301 C 702.39 661.706 714.58 687.341 710.786 713.243 C 706.992 739.144 687.962 760.206 662.577 766.599 C 637.191 772.993 610.455 763.457 594.846 742.442 z"/>
<path transform="translate(0,0)" fill="rgb(248,249,249)" d="M 645.749 752.012 C 539.263 745.321 632.65 589.785 690.985 682.56 C 702.324 718.089 686.492 752.036 645.749 752.012 z"/>
<path transform="translate(0,0)" fill="rgb(219,210,204)" d="M 690.985 682.56 C 702.324 718.089 686.492 752.036 645.749 752.012 C 644.621 744.731 642.178 731.806 642.976 724.862 C 650.729 726.443 658.704 723.459 663.516 717.177 C 668.328 710.896 669.131 702.418 665.586 695.344 C 675.805 688.382 679.202 686.943 690.985 682.56 z"/>
<path transform="translate(0,0)" fill="rgb(63,57,70)" d="M 642.976 724.862 C 633.507 722.931 626.64 714.698 626.439 705.037 C 626.238 695.375 632.758 686.864 642.138 684.542 C 651.518 682.219 661.255 686.706 665.586 695.344 C 669.131 702.418 668.328 710.896 663.516 717.177 C 658.704 723.459 650.729 726.443 642.976 724.862 z"/>
<path transform="translate(0,0)" fill="rgb(254,205,75)" d="M 646.2 697.411 C 650.294 697.001 653.99 699.873 654.605 703.941 C 655.219 708.009 652.536 711.845 648.504 712.662 C 645.709 713.229 642.83 712.209 641.015 710.011 C 639.2 707.812 638.744 704.792 639.829 702.156 C 640.914 699.519 643.363 697.695 646.2 697.411 z"/>
<path transform="translate(0,0)" fill="rgb(159,212,167)" d="M 1504.96 627.78 C 1524.03 642.883 1545.77 678.272 1558.34 699.7 C 1644.06 820.252 1656.2 959.766 1649.81 1100.84 L 1541.93 1100.84 L 1541.93 1043 C 1597.7 1045.5 1581.84 1040.81 1582.12 980.244 L 1532.97 980.244 C 1534.83 967.833 1539.94 938.751 1526.11 935.862 C 1519.48 936.61 1511.73 936.1 1504.96 935.862 L 1504.96 627.78 z"/>
<path transform="translate(0,0)" fill="rgb(199,227,201)" d="M 1504.96 627.78 C 1524.03 642.883 1545.77 678.272 1558.34 699.7 C 1556.77 710.066 1568.75 747.247 1570.86 761.561 C 1578.91 816.313 1582.96 905.42 1526.11 935.862 C 1519.48 936.61 1511.73 936.1 1504.96 935.862 L 1504.96 627.78 z"/>
<path transform="translate(0,0)" fill="rgb(159,212,167)" d="M 739.185 1557.98 C 746.533 1557.07 778.303 1557.92 787.735 1557.93 L 1276.78 1557.98 C 1275.59 1564.43 1276.07 1572.8 1276.78 1579.29 C 1251.29 1578.25 1245.34 1573.98 1246.98 1602.75 C 1246.47 1611.8 1246.81 1621.18 1246.98 1630.27 L 1007.45 1630.3 C 990.083 1630.3 916.576 1632.25 905.244 1628.45 C 849.809 1609.85 794.032 1579.18 739.185 1557.98 z"/>
<path transform="translate(0,0)" fill="rgb(92,160,192)" d="M 1381.85 850.026 C 1404.86 849.577 1447.03 840.128 1448.84 863.505 L 1448.84 935.862 L 1230.07 936.001 C 1224.12 936.032 1209.32 936.453 1203.95 935.862 C 1203.26 914.033 1203.92 888.4 1203.95 866.28 C 1203.88 862.224 1203.61 854.623 1207.25 851.905 C 1212.33 848.119 1362.56 850.011 1381.85 850.026 z"/>
<path transform="translate(0,0)" fill="rgb(84,140,170)" d="M 1448.84 863.505 L 1448.84 935.862 L 1230.07 936.001 C 1224.12 936.032 1209.32 936.453 1203.95 935.862 C 1224.13 932.45 1308.74 935.194 1331.19 935.862 C 1332.78 918.94 1330.89 885.278 1331.19 866.28 L 1426.38 866.28 C 1428.81 864.589 1444.77 863.836 1448.84 863.505 z"/>
<path transform="translate(0,0)" fill="rgb(63,57,70)" d="M 1354.04 905.888 C 1370.96 904.221 1366.01 919.887 1356.09 927.191 C 1344.41 927.574 1342.62 913.723 1354.04 905.888 z"/>
<path transform="translate(0,0)" fill="rgb(63,57,70)" d="M 1411.51 905.888 C 1423.39 906.824 1425.87 921.094 1416.93 927.191 C 1402.16 924.142 1396.91 915.59 1411.51 905.888 z"/>
<path transform="translate(0,0)" fill="rgb(198,220,234)" d="M 1381.85 850.026 C 1404.86 849.577 1447.03 840.128 1448.84 863.505 C 1444.77 863.836 1428.81 864.589 1426.38 866.28 L 1331.19 866.28 L 1248.27 866.365 C 1234.04 866.459 1217.62 867.93 1203.95 866.28 C 1203.88 862.224 1203.61 854.623 1207.25 851.905 C 1212.33 848.119 1362.56 850.011 1381.85 850.026 z"/>
<path transform="translate(0,0)" fill="rgb(84,140,170)" d="M 1381.85 850.026 C 1404.86 849.577 1447.03 840.128 1448.84 863.505 C 1444.77 863.836 1428.81 864.589 1426.38 866.28 C 1426.01 859.792 1424.32 855.901 1422.01 850.026 C 1408.56 850.494 1395.29 851.069 1381.85 850.026 z"/>
<path transform="translate(0,0)" fill="rgb(63,57,70)" d="M 1236.82 906.553 C 1242.31 905.455 1247.65 909.013 1248.75 914.503 C 1249.85 919.992 1246.3 925.335 1240.81 926.437 C 1235.32 927.54 1229.97 923.981 1228.87 918.489 C 1227.77 912.997 1231.33 907.653 1236.82 906.553 z"/>
<path transform="translate(0,0)" fill="rgb(63,57,70)" d="M 1292.41 905.613 C 1297.62 905.029 1302.37 908.646 1303.2 913.828 C 1304.03 919.01 1300.63 923.925 1295.49 924.99 C 1291.95 925.724 1288.29 924.452 1285.97 921.678 C 1283.65 918.905 1283.04 915.079 1284.38 911.721 C 1285.73 908.363 1288.81 906.016 1292.41 905.613 z"/>
<path transform="translate(0,0)" fill="rgb(165,157,149)" d="M 877.819 996.577 C 936.846 995.754 997.69 996.559 1056.94 996.561 L 1567.4 996.577 L 1567.4 1026.99 L 1566.04 1028.47 C 1540.95 1025.93 1506.2 1026.95 1480.45 1026.96 L 877.819 1026.99 C 877.86 1019.84 876.64 1002.19 877.819 996.577 z"/>
<path transform="translate(0,0)" fill="rgb(219,169,122)" d="M 688.77 508.078 C 730.499 510.072 765.95 535.58 796.807 560.758 C 781.589 576.458 780.426 580.661 785.252 601.725 C 776.331 606.826 768.786 614.182 759.958 618.885 C 742.874 600.426 736.13 595.136 715.1 582.04 C 651.977 551.257 584.564 567.011 538.325 618.885 C 528.852 608.912 523.457 604.569 512.289 596.348 C 514.816 582.579 511.168 577.394 505.083 564.999 C 533.357 537.777 568.064 513.377 607.795 508.078 L 610.336 507.591 C 613.615 509.559 613.704 518.466 620.354 523.485 C 649.648 545.594 669.603 532.862 688.77 508.078 z"/>
<path transform="translate(0,0)" fill="rgb(248,249,249)" d="M 1103.13 1107.12 L 1246.98 1107.12 C 1215.24 1135.16 1206.26 1143.58 1206.18 1189.97 L 1206.19 1227.23 C 1196.63 1226.35 1191.41 1226.64 1181.75 1227.23 C 1132.87 1222.78 1142.88 1251.28 1143.07 1289.08 L 1099.19 1289.08 L 1099.15 1135.75 C 1099.13 1130.63 1097.79 1110.24 1099.48 1107.55 L 1103.13 1107.12 z"/>
<path transform="translate(0,0)" fill="rgb(240,169,70)" d="M 1712.06 1123.19 C 1757.81 1147.07 1754.28 1181.59 1754.31 1226.75 L 1754.31 1294.11 C 1754.31 1319.79 1755.76 1359.42 1754.3 1383.65 L 1754.32 1424.77 C 1754.26 1463.96 1751.09 1493.99 1712.06 1513.6 C 1712.07 1471.67 1711.52 1428.86 1712.06 1387.01 L 1712.06 1123.19 z"/>
<path transform="translate(0,0)" fill="rgb(189,131,81)" d="M 1712.06 1426.59 C 1729.32 1419.01 1749.63 1402.69 1754.3 1383.65 L 1754.32 1424.77 C 1754.26 1463.96 1751.09 1493.99 1712.06 1513.6 C 1712.07 1471.67 1711.52 1428.86 1712.06 1387.01 C 1712.87 1391.99 1712.1 1419.56 1712.06 1426.59 z"/>
<path transform="translate(0,0)" fill="rgb(248,249,249)" d="M 1099.19 1348.15 L 1143.07 1348.15 C 1142.54 1414.59 1140.61 1409.41 1206.19 1408.91 C 1205.76 1423.5 1205.8 1436.44 1206.19 1451.02 C 1203.73 1476.13 1211.17 1488.58 1223.25 1509.95 L 1095.25 1509.95 C 1100.8 1490.08 1100.37 1471.55 1099.19 1451.02 L 1099.19 1348.15 z"/>
<path transform="translate(0,0)" fill="rgb(159,212,167)" d="M 1206.19 1451.02 C 1203.73 1476.13 1211.17 1488.58 1223.25 1509.95 L 1095.25 1509.95 C 1100.8 1490.08 1100.37 1471.55 1099.19 1451.02 L 1167 1450.98 C 1179.38 1450.91 1194.22 1450.02 1206.19 1451.02 z"/>
<path transform="translate(0,0)" fill="rgb(248,249,249)" d="M 1388.9 1537.11 L 1538.9 1537.11 L 1538.9 1579.29 C 1510.18 1578.92 1515.78 1585.69 1516.18 1611.85 L 1516.18 1630.27 L 1416.93 1630.27 C 1408 1597.37 1436.44 1577.07 1388.9 1577.6 C 1389 1563.69 1388.36 1552.06 1387.64 1538.36 L 1388.9 1537.11 z"/>
<path transform="translate(0,0)" fill="rgb(168,173,188)" d="M 1325.24 951.568 C 1345.39 950.745 1370.3 951.538 1390.79 951.549 L 1519.95 951.568 L 1519.95 980.244 L 1422.01 980.244 L 1133.89 980.244 L 1133.89 951.568 L 1325.24 951.568 z"/>
<path transform="translate(0,0)" fill="rgb(165,157,149)" d="M 1325.24 951.568 C 1345.39 950.745 1370.3 951.538 1390.79 951.549 L 1519.95 951.568 L 1519.95 980.244 L 1422.01 980.244 L 1422.01 951.568 L 1361.43 951.651 C 1351.58 951.733 1334.04 952.563 1325.24 951.568 z"/>
<path transform="translate(0,0)" fill="rgb(159,212,167)" d="M 1340 1043 L 1526.11 1043 L 1526.11 1100.84 L 1340 1100.84 L 1340 1043 z"/>
<path transform="translate(0,0)" fill="rgb(219,169,122)" d="M 507.476 612.721 C 518.215 619.84 520.23 622.002 528.552 631.962 C 503.502 676.643 491.074 732.206 528.552 775.02 C 522.43 780.212 507.266 797.635 499.54 795.792 C 489.722 787.09 485.74 782.862 471.867 782.861 C 450.039 738.748 445.582 676.942 467.097 631.962 C 484.387 630.582 495.865 625.429 507.476 612.721 z"/>
<path transform="translate(0,0)" fill="rgb(219,169,122)" d="M 538.325 789.441 C 555.843 817.81 592.804 834.935 624.123 842.979 C 638.239 843.637 649.027 844.204 663.194 842.979 C 665.644 846.462 666.966 867.243 667.464 873.32 C 646.624 866.956 629.797 870.181 614.563 886.563 C 609.649 894.484 608.616 896.322 607.795 905.888 C 563.616 900.208 536.431 876.464 505.083 847.607 C 513.368 832.637 514.427 826.598 512.289 809.404 C 522.068 799.866 526.588 796.542 538.325 789.441 z"/>
<path transform="translate(0,0)" fill="rgb(219,169,122)" d="M 624.123 842.979 C 638.239 843.637 649.027 844.204 663.194 842.979 C 665.644 846.462 666.966 867.243 667.464 873.32 C 646.624 866.956 629.797 870.181 614.563 886.563 C 612.095 872.351 619.089 856.085 624.123 842.979 z"/>
<path transform="translate(0,0)" fill="rgb(159,212,167)" d="M 1059.33 1043 L 1246.98 1043 L 1246.98 1090.96 C 1195.8 1090.97 1140.41 1089.82 1089.55 1090.96 C 1081.42 1077.23 1073.31 1072.88 1059.33 1066.51 L 1059.33 1043 z"/>
<path transform="translate(0,0)" fill="rgb(189,131,81)" d="M 792.237 612.721 C 805.613 617.111 798.195 626.975 825.027 627.78 L 826.376 630.617 C 846.667 674.312 841.098 735.507 825.027 779.997 C 810.035 783.286 808.028 785.588 796.807 795.792 C 791.779 794.214 774.33 778.988 770.063 775.02 C 799.828 727.152 795.599 680.239 770.063 631.962 C 779.935 624.75 783.714 621.347 792.237 612.721 z"/>
<path transform="translate(0,0)" fill="rgb(189,131,81)" d="M 763.861 789.441 C 773.481 797.39 783.295 805.214 792.237 813.907 C 790.793 826.856 789.39 831.902 796.807 842.979 C 765.581 876.688 738.144 897.319 690.985 905.888 C 685.502 890.333 682.035 882.318 667.464 873.32 C 666.966 867.243 665.644 846.462 663.194 842.979 C 716.933 839.372 728.417 815.47 763.861 789.441 z"/>
<path transform="translate(0,0)" fill="rgb(254,205,75)" d="M 1246.98 455.608 C 1280.07 454.422 1320.42 455.572 1354.04 455.608 C 1368.8 455.569 1385.33 455.157 1399.95 455.608 L 1399.95 508.078 L 1354.04 508.078 L 1246.98 508.078 L 1246.98 455.608 z"/>
<path transform="translate(0,0)" fill="rgb(240,169,70)" d="M 1354.04 455.608 C 1368.8 455.569 1385.33 455.157 1399.95 455.608 L 1399.95 508.078 L 1354.04 508.078 C 1353 497.227 1353.99 467.387 1354.04 455.608 z"/>
<path transform="translate(0,0)" fill="rgb(178,103,57)" d="M 1159.86 1242.42 C 1175.2 1242.46 1190.88 1242.67 1206.19 1242.42 L 1206.19 1277.05 L 1206.19 1277.05 C 1207.07 1285.54 1206.29 1306.52 1206.25 1316.08 L 1206.19 1392.82 C 1190.98 1392.8 1175 1392.53 1159.86 1392.82 L 1159.86 1330 L 1159.86 1269.34 C 1159.75 1260.45 1159.5 1251.28 1159.86 1242.42 z"/>
<path transform="translate(0,0)" fill="rgb(208,69,58)" d="M 1206.19 1277.05 C 1207.07 1285.54 1206.29 1306.52 1206.25 1316.08 L 1206.19 1392.82 C 1190.98 1392.8 1175 1392.53 1159.86 1392.82 L 1159.86 1330 C 1174.37 1330.42 1191.63 1330.14 1206.19 1330 C 1206.3 1316.87 1204.92 1288.35 1206.19 1277.05 z"/>
<path transform="translate(0,0)" fill="rgb(209,115,94)" d="M 1159.86 1242.42 C 1175.2 1242.46 1190.88 1242.67 1206.19 1242.42 L 1206.19 1277.05 C 1188.54 1275.16 1186.53 1266.67 1159.86 1269.34 C 1159.75 1260.45 1159.5 1251.28 1159.86 1242.42 z"/>
<path transform="translate(0,0)" fill="rgb(92,160,192)" d="M 353.044 1302.12 L 505.083 1302.12 L 505.083 1317.49 L 505.083 1340.44 L 353.044 1340.44 L 353.044 1317.49 L 353.044 1302.12 z"/>
<path transform="translate(0,0)" fill="rgb(143,194,220)" d="M 353.044 1302.12 L 505.083 1302.12 L 505.083 1317.49 C 491.845 1318.33 468.727 1317.56 454.894 1317.55 L 353.044 1317.49 L 353.044 1302.12 z"/>
<path transform="translate(0,0)" fill="rgb(168,173,188)" d="M 928.994 896.023 L 997.969 896.023 L 997.969 980.244 L 928.994 980.244 L 928.994 896.023 z"/>
<path transform="translate(0,0)" fill="rgb(84,140,170)" d="M 353.044 1356.08 L 505.083 1356.08 L 505.083 1367.77 L 505.083 1392.82 L 420.085 1392.85 C 396.975 1392.89 356.579 1399.48 353.044 1367.77 C 353.025 1364.05 352.887 1359.74 353.044 1356.08 z"/>
<path transform="translate(0,0)" fill="rgb(143,194,220)" d="M 353.044 1356.08 L 505.083 1356.08 L 505.083 1367.77 L 353.044 1367.77 C 353.025 1364.05 352.887 1359.74 353.044 1356.08 z"/>
<path transform="translate(0,0)" fill="rgb(92,160,192)" d="M 353.044 1251.85 L 505.083 1251.85 L 505.083 1267.02 L 505.083 1286.06 L 353.044 1286.06 C 353.39 1280.72 353.093 1272.55 353.044 1267.02 L 353.044 1251.85 z"/>
<path transform="translate(0,0)" fill="rgb(143,194,220)" d="M 353.044 1251.85 L 505.083 1251.85 L 505.083 1267.02 L 353.044 1267.02 L 353.044 1251.85 z"/>
<path transform="translate(0,0)" fill="rgb(143,194,220)" d="M 353.044 1201.08 L 505.083 1201.08 C 506.76 1207.61 505.461 1227.03 505.083 1234.61 L 353.044 1234.61 C 353.15 1224.26 352.202 1210.96 353.044 1201.08 z"/>
<path transform="translate(0,0)" fill="rgb(92,160,192)" d="M 353.044 1201.08 C 353.496 1207.42 353.257 1212.68 353.044 1219.02 L 505.083 1219.02 C 504.992 1214.79 504.57 1204.88 505.083 1201.08 C 506.76 1207.61 505.461 1227.03 505.083 1234.61 L 353.044 1234.61 C 353.15 1224.26 352.202 1210.96 353.044 1201.08 z"/>
<path transform="translate(0,0)" fill="rgb(189,131,81)" d="M 1532.97 1595.86 C 1575.73 1595.87 1621.88 1594.89 1664.27 1595.86 L 1664.27 1630.27 C 1620.62 1630.21 1576.56 1630.73 1532.97 1630.27 L 1532.97 1595.86 z"/>
<path transform="translate(0,0)" fill="rgb(137,131,132)" d="M 1263.77 1595.86 C 1277.24 1595.25 1295.08 1595.8 1308.9 1595.8 L 1396.87 1595.86 C 1397.14 1607.07 1396.91 1619 1396.87 1630.27 L 1263.77 1630.27 C 1263.53 1618.75 1263.67 1607.38 1263.77 1595.86 z"/>
<path transform="translate(0,0)" fill="rgb(165,157,149)" d="M 659.546 1595.86 C 697.611 1598.2 699.489 1589.39 699.099 1630.27 L 671.079 1630.27 L 565.97 1630.27 L 565.97 1595.86 C 579.46 1597.54 590.027 1596.16 603.536 1595.99 L 659.546 1595.86 z"/>
<path transform="translate(0,0)" fill="rgb(137,131,132)" d="M 659.546 1595.86 C 697.611 1598.2 699.489 1589.39 699.099 1630.27 L 671.079 1630.27 C 670.637 1618.99 670.956 1607.19 671.079 1595.86 C 667.325 1596.2 663.334 1595.97 659.546 1595.86 z"/>
<path transform="translate(0,0)" fill="rgb(198,220,234)" d="M 353.044 1176.59 C 361.341 1149.32 393.905 1157.84 419.354 1157.89 L 505.083 1157.99 L 505.083 1176.59 C 505.182 1179.81 505.482 1181.14 504.178 1184.11 C 463.721 1187.89 395.638 1185.59 354.107 1184.58 C 352.249 1181.24 352.967 1181.08 353.044 1176.59 z"/>
<path transform="translate(0,0)" fill="rgb(143,194,220)" d="M 353.044 1176.59 C 357.818 1175.74 399.823 1176.69 407.743 1176.68 L 471.623 1176.5 C 481.408 1176.44 495.921 1175.52 505.083 1176.59 C 505.182 1179.81 505.482 1181.14 504.178 1184.11 C 463.721 1187.89 395.638 1185.59 354.107 1184.58 C 352.249 1181.24 352.967 1181.08 353.044 1176.59 z"/>
<path transform="translate(0,0)" fill="rgb(84,140,170)" d="M 1263.77 1043 L 1325.24 1043 L 1325.24 1100.84 C 1304.83 1100.75 1284.13 1101.49 1263.77 1100.84 L 1263.77 1043 z"/>
<path transform="translate(0,0)" fill="rgb(248,249,249)" d="M 313.001 1195.52 C 322.652 1194.92 328.212 1194.96 337.899 1195.52 C 337.924 1238.85 336.452 1290.74 337.899 1333.24 C 328.824 1333.6 322.066 1333.63 313.001 1333.24 C 312.189 1321.2 312.931 1299.76 312.941 1287.02 L 313.001 1195.52 z"/>
<path transform="translate(0,0)" fill="rgb(73,100,128)" d="M 1772.08 1242.42 C 1793.88 1242.3 1795.23 1256.18 1795.26 1275.42 C 1795.3 1299.29 1800.36 1374.49 1787.94 1392.82 C 1782.94 1396.27 1777.71 1398.1 1772.08 1400.37 L 1772.04 1300.94 C 1772 1282 1771.44 1261.15 1772.08 1242.42 z"/>
<path transform="translate(0,0)" fill="rgb(137,131,132)" d="M 1558.34 1537.11 L 1636.44 1537.11 C 1636.54 1550.61 1636.97 1565.95 1636.44 1579.29 L 1558.34 1579.29 C 1558.04 1565.6 1558.32 1550.88 1558.34 1537.11 z"/>
<path transform="translate(0,0)" fill="rgb(110,101,102)" d="M 1292.98 1537.11 L 1370.04 1537.11 C 1369.94 1548.78 1371.01 1568.45 1370.04 1579.29 L 1291.16 1579.29 C 1291.09 1565.68 1290.8 1550.44 1292.98 1537.11 z"/>
<path transform="translate(0,0)" fill="rgb(137,131,132)" d="M 1154.93 1527.18 L 1204.35 1527.11 C 1244.06 1526.67 1241.21 1522.84 1276.78 1541.7 C 1247.96 1542.78 1211.21 1541.69 1181.75 1541.7 L 1059.33 1541.7 C 1070.47 1537.51 1073.86 1534.47 1083.01 1527.18 L 1154.93 1527.18 z"/>
<path transform="translate(0,0)" fill="rgb(254,205,75)" d="M 221.365 1281.74 C 198.919 1239.93 276.005 1249.58 296.972 1249.68 L 296.972 1269.34 L 296.972 1289.08 C 278.241 1289.16 235.31 1291.4 221.365 1281.74 z"/>
<path transform="translate(0,0)" fill="rgb(240,169,70)" d="M 231.167 1269.34 L 233.07 1269.12 C 243.555 1267.84 286.302 1267.82 296.972 1269.34 L 296.972 1289.08 C 278.241 1289.16 235.31 1291.4 221.365 1281.74 C 225.566 1276.78 225.564 1274.52 231.167 1269.34 z"/>
<path transform="translate(0,0)" fill="rgb(110,101,102)" d="M 590.229 1546.2 L 671.079 1546.2 C 671.916 1556.92 673.602 1568.97 671.079 1579.29 C 659.128 1580.56 601.692 1580.85 590.229 1579.29 C 589.32 1570.14 590.197 1555.85 590.229 1546.2 z"/>
<path transform="translate(0,0)" fill="rgb(165,157,149)" d="M 590.229 1579.29 C 590.535 1575.46 590.311 1571.41 592.071 1568.34 C 610.527 1568.21 629.106 1568.8 647.6 1568.74 C 668.164 1568.67 672.04 1561.71 671.079 1579.29 C 659.128 1580.56 601.692 1580.85 590.229 1579.29 z"/>
<path transform="translate(0,0)" fill="rgb(168,173,188)" d="M 985.861 863.505 C 1003.91 863.475 1076 853.327 1069.25 878.834 C 1064.81 881.971 1024.71 880.442 1017.18 880.398 C 1006.54 880.375 937.148 881.71 932.938 878.945 C 928.611 857.939 973.146 863.372 985.861 863.505 z"/>
<path transform="translate(0,0)" fill="rgb(165,157,149)" d="M 1017.18 896.023 L 1043.86 896.023 L 1043.86 980.244 L 1017.18 980.244 L 1017.18 896.023 z"/>
<path transform="translate(0,0)" fill="rgb(219,210,204)" d="M 645.749 886.563 C 672.834 878.219 691.481 923.654 652.296 935.862 C 633.833 935.454 625.49 925.526 620.414 909.003 C 624.292 892.776 629.855 888.431 645.749 886.563 z"/>
<path transform="translate(0,0)" fill="rgb(50,51,75)" d="M 645.225 902.683 C 648.054 901.384 651.369 901.748 653.849 903.63 C 656.329 905.512 657.571 908.606 657.081 911.68 C 656.592 914.755 654.449 917.31 651.507 918.328 C 647.253 919.8 642.593 917.674 640.916 913.497 C 639.238 909.32 641.135 904.562 645.225 902.683 z"/>
<path transform="translate(0,0)" fill="rgb(143,194,220)" d="M 467.252 798.137 C 480.506 794.783 493.989 802.728 497.476 815.948 C 500.963 829.168 493.154 842.73 479.97 846.35 C 471.323 848.724 462.067 846.272 455.73 839.928 C 449.392 833.583 446.95 824.325 449.333 815.68 C 451.717 807.036 458.559 800.337 467.252 798.137 z"/>
<path transform="translate(0,0)" fill="rgb(50,51,75)" d="M 470.262 815.848 C 472.583 814.24 475.599 814.035 478.116 815.315 C 480.633 816.594 482.244 819.152 482.313 821.974 C 482.381 824.797 480.895 827.429 478.443 828.829 C 474.873 830.867 470.331 829.732 468.139 826.254 C 465.947 822.776 466.883 818.189 470.262 815.848 z"/>
<path transform="translate(0,0)" fill="rgb(143,194,220)" d="M 824.203 795.039 C 832.776 792.877 841.849 795.489 847.96 801.879 C 854.07 808.268 856.276 817.449 853.734 825.916 C 851.193 834.384 844.297 840.833 835.678 842.802 C 828.58 844.423 821.129 842.812 815.335 838.403 C 809.541 833.995 806.002 827.243 805.671 819.97 C 805.142 808.313 812.888 797.892 824.203 795.039 z"/>
<path transform="translate(0,0)" fill="rgb(50,51,75)" d="M 827.765 810.453 C 832.107 809.428 836.454 812.133 837.452 816.482 C 838.45 820.831 835.717 825.16 831.362 826.13 C 827.046 827.092 822.763 824.389 821.774 820.079 C 820.786 815.769 823.461 811.47 827.765 810.453 z"/>
<path transform="translate(0,0)" fill="rgb(143,194,220)" d="M 816.386 564.665 C 829.09 561.094 842.288 568.48 845.888 581.176 C 849.489 593.871 842.133 607.086 829.446 610.715 C 816.717 614.357 803.45 606.972 799.838 594.235 C 796.226 581.498 803.641 568.248 816.386 564.665 z"/>
<path transform="translate(0,0)" fill="rgb(50,51,75)" d="M 819.893 579.769 C 822.604 578.299 825.901 578.424 828.493 580.096 C 831.085 581.767 832.56 584.718 832.34 587.794 C 832.121 590.871 830.242 593.583 827.438 594.869 C 823.299 596.768 818.399 595.042 816.363 590.968 C 814.327 586.894 815.889 581.939 819.893 579.769 z"/>
<path transform="translate(0,0)" fill="rgb(143,194,220)" d="M 468.305 567.884 C 481.071 564.93 493.83 572.826 496.882 585.569 C 499.933 598.312 492.136 611.131 479.417 614.281 C 466.558 617.466 453.568 609.564 450.482 596.681 C 447.397 583.799 455.399 570.869 468.305 567.884 z"/>
<path transform="translate(0,0)" fill="rgb(50,51,75)" d="M 471.603 582.554 C 475.719 580.571 480.665 582.272 482.69 586.368 C 484.715 590.463 483.064 595.426 478.989 597.493 C 476.316 598.849 473.121 598.664 470.621 597.01 C 468.122 595.356 466.703 592.487 466.906 589.496 C 467.109 586.506 468.903 583.855 471.603 582.554 z"/>
<path transform="translate(0,0)" fill="rgb(143,194,220)" d="M 645.749 472.294 C 679.658 474.871 681.415 510.91 652.296 518.993 C 613.894 519.188 617.1 478.023 645.749 472.294 z"/>
<path transform="translate(0,0)" fill="rgb(50,51,75)" d="M 645.749 485.178 C 657.21 486.933 659.742 498.336 649.329 503.599 C 636.572 501.964 638.887 493.118 645.749 485.178 z"/>
<path transform="translate(0,0)" fill="rgb(168,173,188)" d="M 1329.06 420.303 C 1344.85 422.376 1348.21 422.288 1364.01 420.303 C 1364.11 426.463 1364.42 433.791 1364.01 439.834 C 1352.04 439.887 1332.14 440.569 1320.91 439.834 L 1276.78 439.834 L 1276.78 420.303 C 1289.72 420.195 1317.95 421.554 1329.06 420.303 z"/>
<path transform="translate(0,0)" fill="rgb(73,100,128)" d="M 1329.06 420.303 C 1344.85 422.376 1348.21 422.288 1364.01 420.303 C 1364.11 426.463 1364.42 433.791 1364.01 439.834 C 1352.04 439.887 1332.14 440.569 1320.91 439.834 C 1324.73 439.624 1329.82 439.811 1333.75 439.834 C 1333.4 431.993 1337.32 424.049 1329.06 420.303 z"/>
<path transform="translate(0,0)" fill="rgb(198,220,234)" d="M 1135.94 382.864 C 1142.24 382.816 1148.64 382.692 1154.93 382.864 C 1154.86 393.977 1154.69 405.17 1154.93 416.274 C 1148.26 415.272 1142.64 415.542 1135.94 416.274 C 1129.03 415.355 1123.55 413.451 1116.03 412.526 C 1114.01 399.114 1113.98 396.361 1116.03 382.864 L 1135.94 382.864 z"/>
<path transform="translate(0,0)" fill="rgb(168,173,188)" d="M 1135.94 382.864 C 1142.24 382.816 1148.64 382.692 1154.93 382.864 C 1154.86 393.977 1154.69 405.17 1154.93 416.274 C 1148.26 415.272 1142.64 415.542 1135.94 416.274 C 1136.46 413.206 1135.94 387.585 1135.94 382.864 z"/>
<path transform="translate(0,0)" fill="rgb(209,115,94)" d="M 1089.55 353.483 C 1111.87 352.309 1147.07 353.497 1170.37 353.483 L 1170.37 368.697 L 1089.55 368.697 L 1089.55 353.483 z"/>
<path transform="translate(0,0)" fill="rgb(178,103,57)" d="M 1099.19 1306.1 L 1143.07 1306.1 C 1143.57 1316.11 1143.46 1323.23 1143.07 1333.24 L 1099.19 1333.24 C 1099.05 1324.29 1099.18 1315.07 1099.19 1306.1 z"/>
<path transform="translate(0,0)" fill="rgb(165,157,149)" d="M 1059.33 896.023 L 1073.04 896.023 C 1073.01 918.664 1074.47 958.892 1073.04 980.244 C 1068.62 980.13 1063.79 980.238 1059.33 980.244 C 1059.38 952.286 1058.92 923.936 1059.33 896.023 z"/>
<path transform="translate(0,0)" fill="rgb(240,169,70)" d="M 573.032 1035.77 C 578.919 1022.19 593.588 1024.33 592.54 1043 L 592.54 1066.51 C 585.82 1066.72 579.752 1066.65 573.032 1066.51 C 573.041 1056.41 572.353 1045.79 573.032 1035.77 z"/>
<path transform="translate(0,0)" fill="rgb(255,190,75)" d="M 573.032 1035.77 C 578.919 1022.19 593.588 1024.33 592.54 1043 C 581.773 1041.76 574.476 1049.55 573.032 1035.77 z"/>
<path transform="translate(0,0)" fill="rgb(240,169,70)" d="M 730.744 1043 C 728.98 1027.44 740.751 1022.53 748.714 1035.77 C 749.008 1045.97 748.808 1056.3 748.714 1066.51 C 742.96 1066.43 736.427 1066.17 730.744 1066.51 L 730.744 1043 z"/>
<path transform="translate(0,0)" fill="rgb(255,190,75)" d="M 730.744 1043 C 728.98 1027.44 740.751 1022.53 748.714 1035.77 C 747.009 1045.44 739.571 1045.63 730.744 1043 z"/>
<path transform="translate(0,0)" fill="rgb(168,173,188)" d="M 933.972 1043 C 942.15 1042.81 950.717 1042.97 958.926 1043 L 958.926 1066.51 L 933.972 1066.51 L 933.972 1043 z"/>
<path transform="translate(0,0)" fill="rgb(240,169,70)" d="M 817.385 1026.99 C 830.973 1026.86 830.708 1056.33 827.025 1065.93 L 825.027 1066.51 L 811.053 1066.51 L 810.765 1048.07 C 810.553 1037.83 810.687 1033.99 817.385 1026.99 z"/>
<path transform="translate(0,0)" fill="rgb(168,173,188)" d="M 1017.18 1043 L 1043.86 1043 C 1043.36 1052.16 1043.31 1057.39 1043.86 1066.51 C 1034.69 1066.84 1026.32 1066.7 1017.18 1066.51 C 1017.65 1057.37 1017.81 1052.07 1017.18 1043 z"/>
<path transform="translate(0,0)" fill="rgb(219,210,204)" d="M 975.078 1043 C 983.503 1042.61 989.52 1042.66 997.969 1043 C 998.636 1051.99 998.602 1057.62 997.969 1066.51 C 990.444 1066.85 982.634 1066.62 975.078 1066.51 C 974.936 1058.8 975.067 1050.75 975.078 1043 z"/>
<path transform="translate(0,0)" fill="rgb(198,220,234)" d="M 1133.89 308.756 L 1135.33 309.293 C 1138.82 314.314 1136.48 333.467 1135.94 339.842 L 1120.75 339.842 L 1118.69 339.459 C 1111.82 327.739 1123.44 313.077 1133.89 308.756 z"/>
<path transform="translate(0,0)" fill="rgb(178,103,57)" d="M 1434.06 399.458 L 1564.49 399.445 C 1567.96 399.445 1673.03 392.352 1631.73 420.303 L 1435.75 420.571 C 1423.55 419.016 1425.34 405.042 1434.06 399.458 z"/>
<path transform="translate(0,0)" fill="rgb(150,83,34)" d="M 1489.43 485.178 L 1638.6 485.147 C 1641.25 485.147 1755.85 478.141 1716.76 503.599 C 1710.37 504.233 1695.02 503.66 1687.94 503.65 L 1544.06 503.627 C 1538.06 503.631 1461.18 509.185 1489.43 485.178 z"/>
<path transform="translate(0,0)" fill="rgb(150,83,34)" d="M 266.283 695.932 C 279.659 694.699 394.651 694.857 400.348 697.931 C 410.252 703.276 403.599 713.376 395.386 715.389 L 307.802 715.48 C 294.355 715.531 278.445 716.134 265.15 714.879 C 253.411 713.772 259.256 700.008 266.283 695.932 z"/>
<path transform="translate(0,0)" fill="rgb(150,83,34)" d="M 443.656 795.792 L 436.01 795.042 C 400.151 791.233 347.645 802.779 311.652 791.025 C 308.614 790.033 306.055 774.771 317.925 774.869 L 447.964 775.02 C 451.094 778.298 456.991 785.41 459.051 789.441 C 454.197 790.863 447.227 792.461 443.656 795.792 z"/>
<path transform="translate(0,0)" fill="rgb(150,83,34)" d="M 1553.95 564.999 L 1623.15 564.902 C 1635.22 564.897 1647.53 564.558 1659.54 565.371 C 1669.77 566.064 1674.06 577.992 1664.27 583.971 C 1660.49 584.553 1511.13 594.664 1553.95 564.999 z"/>
</svg>